<svg width="170" height="58" viewBox="0 0 170 58" fill="none" xmlns="http://www.w3.org/2000/svg">
<rect x="1.2107" y="1.48255" width="167.927" height="55.0348" rx="9.17247" fill="black"/>
<path d="M115.55 27.8724V31.1053H113.524V33.2255H115.55V40.4294C115.55 42.8893 116.663 43.8732 119.463 43.8732C119.955 43.8732 120.423 43.8147 120.833 43.7444V41.6476C120.482 41.6828 120.259 41.7062 119.873 41.7062C118.619 41.7062 118.069 41.1205 118.069 39.7852V33.2255H120.833V31.1053H118.069V27.8724H115.55Z" fill="white"/>
<path d="M127.965 44.0489C131.69 44.0489 133.974 41.5539 133.974 37.419C133.974 33.3075 131.678 30.8008 127.965 30.8008C124.24 30.8008 121.944 33.3075 121.944 37.419C121.944 41.5539 124.228 44.0489 127.965 44.0489ZM127.965 41.8116C125.775 41.8116 124.545 40.2069 124.545 37.419C124.545 34.6546 125.775 33.0381 127.965 33.0381C130.144 33.0381 131.385 34.6546 131.385 37.419C131.385 40.1951 130.144 41.8116 127.965 41.8116Z" fill="white"/>
<path d="M135.928 43.8029H138.447V36.2711C138.447 34.4789 139.794 33.2724 141.703 33.2724C142.148 33.2724 142.898 33.3544 143.109 33.4247V30.9414C142.839 30.8711 142.359 30.8359 141.984 30.8359C140.321 30.8359 138.904 31.7496 138.541 33.003H138.353V31.0468H135.928V43.8029Z" fill="white"/>
<path d="M149.362 32.9444C151.225 32.9444 152.443 34.2446 152.501 36.2476H146.059C146.199 34.2563 147.5 32.9444 149.362 32.9444ZM152.49 40.3591C152.021 41.3548 150.979 41.9053 149.456 41.9053C147.441 41.9053 146.141 40.488 146.059 38.2507V38.1101H155.067V37.2316C155.067 33.2255 152.923 30.8008 149.374 30.8008C145.778 30.8008 143.494 33.3895 143.494 37.4659C143.494 41.5422 145.731 44.0489 149.385 44.0489C152.302 44.0489 154.34 42.6433 154.914 40.3591H152.49Z" fill="white"/>
<path d="M99.0349 39.0923C99.2291 42.2246 101.839 44.2279 105.724 44.2279C109.877 44.2279 112.475 42.1275 112.475 38.7766C112.475 36.1421 110.994 34.6852 107.4 33.8474L105.47 33.374C103.187 32.8398 102.264 32.1234 102.264 30.8729C102.264 29.2946 103.697 28.2627 105.846 28.2627C107.886 28.2627 109.294 29.2703 109.549 30.8851H112.196C112.038 27.9348 109.44 25.8588 105.882 25.8588C102.058 25.8588 99.5084 27.9348 99.5084 31.055C99.5084 33.6289 100.953 35.1587 104.122 35.8992L106.38 36.4456C108.699 36.9919 109.719 37.7932 109.719 39.1287C109.719 40.6827 108.116 41.8118 105.931 41.8118C103.588 41.8118 101.961 40.7556 101.73 39.0923H99.0349Z" fill="white"/>
<path d="M72.9465 30.8359C71.2128 30.8359 69.7135 31.7027 68.9404 33.1552H68.753V31.0468H66.3283V48.0433H68.8467V41.8702H69.0458C69.7135 43.2173 71.1543 44.0138 72.9699 44.0138C76.1911 44.0138 78.241 41.4719 78.241 37.419C78.241 33.3661 76.1911 30.8359 72.9465 30.8359ZM72.2319 41.7531C70.1235 41.7531 68.7998 40.0897 68.7998 37.4307C68.7998 34.76 70.1235 33.0967 72.2436 33.0967C74.3755 33.0967 75.6523 34.7249 75.6523 37.419C75.6523 40.1249 74.3755 41.7531 72.2319 41.7531Z" fill="white"/>
<path d="M87.0534 30.8359C85.3198 30.8359 83.8205 31.7027 83.0474 33.1552H82.86V31.0468H80.4352V48.0433H82.9537V41.8702H83.1528C83.8205 43.2173 85.2613 44.0138 87.0769 44.0138C90.2981 44.0138 92.348 41.4719 92.348 37.419C92.348 33.3661 90.2981 30.8359 87.0534 30.8359ZM86.3389 41.7531C84.2305 41.7531 82.9068 40.0897 82.9068 37.4307C82.9068 34.76 84.2305 33.0967 86.3506 33.0967C88.4825 33.0967 89.7593 34.7249 89.7593 37.419C89.7593 40.1249 88.4825 41.7531 86.3389 41.7531Z" fill="white"/>
<path d="M61.8097 43.8029H64.6993L58.3739 26.2837H55.4479L49.1226 43.8029H51.915L53.5297 39.153H60.2072L61.8097 43.8029ZM56.7713 29.4646H56.9777L59.5151 36.8705H54.2217L56.7713 29.4646Z" fill="white"/>
<path d="M50.8142 13.0694V21.5208H53.8656C56.384 21.5208 57.8424 19.9687 57.8424 17.2687C57.8424 14.6097 56.3723 13.0694 53.8656 13.0694H50.8142ZM52.1261 14.2642H53.7192C55.4704 14.2642 56.507 15.377 56.507 17.2863C56.507 19.2249 55.488 20.326 53.7192 20.326H52.1261V14.2642Z" fill="white"/>
<path d="M62.3088 21.6438C64.1713 21.6438 65.3134 20.3963 65.3134 18.3288C65.3134 16.2731 64.1654 15.0197 62.3088 15.0197C60.4463 15.0197 59.2984 16.2731 59.2984 18.3288C59.2984 20.3963 60.4405 21.6438 62.3088 21.6438ZM62.3088 20.5251C61.2136 20.5251 60.5986 19.7227 60.5986 18.3288C60.5986 16.9466 61.2136 16.1384 62.3088 16.1384C63.3982 16.1384 64.019 16.9466 64.019 18.3288C64.019 19.7169 63.3982 20.5251 62.3088 20.5251Z" fill="white"/>
<path d="M75.0392 15.1427H73.78L72.6438 20.0097H72.5442L71.2323 15.1427H70.0258L68.7138 20.0097H68.6201L67.478 15.1427H66.2013L67.9583 21.5208H69.2527L70.5646 16.8236H70.6642L71.9819 21.5208H73.288L75.0392 15.1427Z" fill="white"/>
<path d="M76.4893 21.5208H77.7486V17.79C77.7486 16.7943 78.3401 16.1735 79.2713 16.1735C80.2026 16.1735 80.6477 16.6831 80.6477 17.708V21.5208H81.9069V17.3917C81.9069 15.8748 81.1221 15.0197 79.6989 15.0197C78.7384 15.0197 78.1058 15.4473 77.7954 16.1559H77.7017V15.1427H76.4893V21.5208Z" fill="white"/>
<path d="M83.89 21.5208H85.1492V12.6536H83.89V21.5208Z" fill="white"/>
<path d="M89.8851 21.6438C91.7475 21.6438 92.8896 20.3963 92.8896 18.3288C92.8896 16.2731 91.7417 15.0197 89.8851 15.0197C88.0226 15.0197 86.8747 16.2731 86.8747 18.3288C86.8747 20.3963 88.0167 21.6438 89.8851 21.6438ZM89.8851 20.5251C88.7899 20.5251 88.1749 19.7227 88.1749 18.3288C88.1749 16.9466 88.7899 16.1384 89.8851 16.1384C90.9744 16.1384 91.5953 16.9466 91.5953 18.3288C91.5953 19.7169 90.9744 20.5251 89.8851 20.5251Z" fill="white"/>
<path d="M96.6415 20.5661C95.9563 20.5661 95.4584 20.2323 95.4584 19.6583C95.4584 19.0961 95.8567 18.7974 96.7352 18.7388L98.2931 18.6392V19.1722C98.2931 19.9629 97.5903 20.5661 96.6415 20.5661ZM96.3194 21.6262C97.1569 21.6262 97.8539 21.2631 98.2346 20.6247H98.3341V21.5208H99.5465V17.1633C99.5465 15.8162 98.6445 15.0197 97.0456 15.0197C95.599 15.0197 94.5682 15.7225 94.4393 16.8178H95.6576C95.7981 16.3668 96.2842 16.1091 96.9871 16.1091C97.848 16.1091 98.2931 16.4898 98.2931 17.1633V17.7139L96.5654 17.8134C95.0484 17.9071 94.1934 18.569 94.1934 19.7169C94.1934 20.8824 95.0894 21.6262 96.3194 21.6262Z" fill="white"/>
<path d="M103.82 21.6262C104.698 21.6262 105.442 21.2104 105.823 20.5134H105.922V21.5208H107.129V12.6536H105.87V16.1559H105.776C105.43 15.4531 104.692 15.0373 103.82 15.0373C102.209 15.0373 101.172 16.3141 101.172 18.3288C101.172 20.3494 102.197 21.6262 103.82 21.6262ZM104.177 16.1677C105.231 16.1677 105.893 17.0052 105.893 18.3347C105.893 19.67 105.237 20.4959 104.177 20.4959C103.111 20.4959 102.473 19.6818 102.473 18.3288C102.473 16.9876 103.117 16.1677 104.177 16.1677Z" fill="white"/>
<path d="M115.294 21.6438C117.157 21.6438 118.299 20.3963 118.299 18.3288C118.299 16.2731 117.151 15.0197 115.294 15.0197C113.432 15.0197 112.284 16.2731 112.284 18.3288C112.284 20.3963 113.426 21.6438 115.294 21.6438ZM115.294 20.5251C114.199 20.5251 113.584 19.7227 113.584 18.3288C113.584 16.9466 114.199 16.1384 115.294 16.1384C116.384 16.1384 117.005 16.9466 117.005 18.3288C117.005 19.7169 116.384 20.5251 115.294 20.5251Z" fill="white"/>
<path d="M119.966 21.5208H121.225V17.79C121.225 16.7943 121.816 16.1735 122.748 16.1735C123.679 16.1735 124.124 16.6831 124.124 17.708V21.5208H125.383V17.3917C125.383 15.8748 124.598 15.0197 123.175 15.0197C122.215 15.0197 121.582 15.4473 121.272 16.1559H121.178V15.1427H119.966V21.5208Z" fill="white"/>
<path d="M131.183 13.5555V15.172H130.169V16.2321H131.183V19.834C131.183 21.064 131.739 21.5559 133.139 21.5559C133.385 21.5559 133.619 21.5267 133.824 21.4915V20.4431C133.648 20.4607 133.537 20.4724 133.344 20.4724C132.717 20.4724 132.442 20.1796 132.442 19.5119V16.2321H133.824V15.172H132.442V13.5555H131.183Z" fill="white"/>
<path d="M135.514 21.5208H136.774V17.7959C136.774 16.8295 137.348 16.1794 138.378 16.1794C139.269 16.1794 139.743 16.6948 139.743 17.7139V21.5208H141.002V17.4034C141.002 15.8865 140.165 15.0256 138.806 15.0256C137.845 15.0256 137.172 15.4531 136.861 16.1677H136.762V12.6536H135.514V21.5208Z" fill="white"/>
<path d="M145.545 16.0915C146.476 16.0915 147.085 16.7416 147.114 17.7431H143.893C143.963 16.7475 144.614 16.0915 145.545 16.0915ZM147.109 19.7989C146.874 20.2967 146.353 20.572 145.592 20.572C144.584 20.572 143.934 19.8633 143.893 18.7447V18.6744H148.397V18.2351C148.397 16.2321 147.325 15.0197 145.551 15.0197C143.753 15.0197 142.611 16.3141 142.611 18.3523C142.611 20.3904 143.729 21.6438 145.557 21.6438C147.015 21.6438 148.034 20.941 148.321 19.7989H147.109Z" fill="white"/>
<path d="M35.4579 29.4244C35.4884 27.0523 36.7624 24.8077 38.7833 23.5653C37.5084 21.7444 35.3729 20.59 33.1512 20.5205C30.7816 20.2717 28.4843 21.9384 27.2767 21.9384C26.0458 21.9384 24.1867 20.5452 22.1846 20.5863C19.575 20.6707 17.1423 22.1543 15.8726 24.4358C13.1435 29.1609 15.1792 36.1052 17.7935 39.9247C19.1015 41.7949 20.6302 43.8841 22.6304 43.81C24.5878 43.7288 25.3188 42.5619 27.6815 42.5619C30.0222 42.5619 30.7081 43.81 32.7489 43.7629C34.8492 43.7288 36.1725 41.8843 37.4347 39.9963C38.3744 38.6637 39.0976 37.1908 39.5774 35.6323C37.1091 34.5884 35.4608 32.1044 35.4579 29.4244Z" fill="white"/>
<path d="M31.6031 18.0086C32.7483 16.6339 33.3125 14.8668 33.1759 13.0828C31.4263 13.2666 29.8101 14.1028 28.6495 15.4248C27.5145 16.7165 26.9239 18.4524 27.0355 20.1682C28.7857 20.1862 30.5064 19.3727 31.6031 18.0086Z" fill="white"/>
<rect x="1.2107" y="1.48255" width="167.927" height="55.0348" rx="9.17247" stroke="#A6A6A6" stroke-width="1.41115"/>
</svg>
