<svg width="7" height="12" viewBox="0 0 7 12" fill="none" xmlns="http://www.w3.org/2000/svg">
<path d="M4.18377 6.46606V11.2142H2.66772V6.46606V6.21606H2.41772H0.981934V4.76816H2.41772H2.66772V4.51816V3.08165C2.66772 2.29997 2.90576 1.72583 3.28981 1.3471C3.67469 0.96754 4.23402 0.756836 4.92868 0.756836C5.44708 0.756836 5.91021 0.785261 6.18507 0.80907V2.07587L5.40134 2.07623C5.4013 2.07623 5.40126 2.07623 5.40123 2.07623C4.96283 2.07624 4.63162 2.17985 4.42251 2.42766C4.22139 2.66599 4.18377 2.98176 4.18377 3.27452V4.51816V4.76816H4.43377H6.08262L5.89551 6.21606H4.43377H4.18377V6.46606Z" fill="white" stroke="white" stroke-width="0.5"/>
</svg>
