<svg width="13" height="13" viewBox="0 0 13 13" fill="none" xmlns="http://www.w3.org/2000/svg">
<path d="M6.66763 1.7934C8.29913 1.7934 8.49234 1.7995 9.13685 1.82882C9.52437 1.83356 9.9082 1.90455 10.2717 2.03873C10.5352 2.14015 10.7746 2.29552 10.9744 2.49482C11.1741 2.69413 11.3298 2.93297 11.4315 3.19595C11.566 3.5586 11.6371 3.94157 11.6419 4.32821C11.671 4.97128 11.6774 5.16405 11.6774 6.79189C11.6774 8.41973 11.6713 8.6125 11.6419 9.25556C11.6371 9.64221 11.566 10.0252 11.4315 10.3878C11.3298 10.6508 11.1741 10.8896 10.9744 11.089C10.7746 11.2883 10.5352 11.4436 10.2717 11.545C9.9082 11.6792 9.52437 11.7502 9.13685 11.755C8.49263 11.784 8.29943 11.7904 6.66763 11.7904C5.03584 11.7904 4.84263 11.7843 4.19841 11.755C3.81089 11.7502 3.42706 11.6792 3.0636 11.545C2.80002 11.4436 2.56065 11.2883 2.36089 11.089C2.16113 10.8896 2.00542 10.6508 1.90377 10.3878C1.76929 10.0252 1.69813 9.64221 1.69339 9.25556C1.66429 8.6125 1.65789 8.41973 1.65789 6.79189C1.65789 5.16405 1.664 4.97128 1.69339 4.32821C1.69813 3.94157 1.76929 3.5586 1.90377 3.19595C2.00542 2.93297 2.16113 2.69413 2.36089 2.49482C2.56065 2.29552 2.80002 2.14015 3.0636 2.03873C3.42706 1.90455 3.81089 1.83356 4.19841 1.82882C4.84292 1.79979 5.03613 1.7934 6.66763 1.7934V1.7934ZM6.66763 0.694824C5.00907 0.694824 4.80014 0.701792 4.14836 0.731405C3.6412 0.74147 3.13943 0.83728 2.66438 1.01476C2.25687 1.16795 1.88776 1.40802 1.58282 1.71821C1.27165 2.02258 1.03084 2.39106 0.877203 2.79792C0.699323 3.2719 0.603298 3.77255 0.59321 4.27857C0.564112 4.92831 0.557129 5.13676 0.557129 6.7916C0.557129 8.44644 0.564112 8.65489 0.593792 9.30521C0.603879 9.81123 0.699905 10.3119 0.877785 10.7859C1.03125 11.1927 1.27186 11.5611 1.58282 11.8656C1.88793 12.1758 2.25724 12.4159 2.66496 12.569C3.14001 12.7465 3.64178 12.8423 4.14894 12.8524C4.80073 12.8814 5.00877 12.889 6.66821 12.889C8.32765 12.889 8.5357 12.882 9.18748 12.8524C9.69464 12.8423 10.1964 12.7465 10.6715 12.569C11.0773 12.4121 11.4457 12.1724 11.7534 11.8652C12.061 11.5581 12.301 11.1903 12.4581 10.7853C12.6359 10.3113 12.732 9.81065 12.7421 9.30463C12.7711 8.65489 12.7781 8.44644 12.7781 6.7916C12.7781 5.13676 12.7711 4.92831 12.7415 4.27799C12.7314 3.77197 12.6354 3.27132 12.4575 2.79734C12.304 2.39053 12.0634 2.02205 11.7524 1.71763C11.4473 1.40737 11.078 1.1673 10.6703 1.01418C10.1953 0.836699 9.69348 0.740889 9.18632 0.730824C8.53512 0.701792 8.32619 0.694824 6.66763 0.694824Z" fill="white"/>
<path d="M6.66914 3.66211C6.04852 3.66211 5.44184 3.84573 4.92582 4.18975C4.4098 4.53377 4.00761 5.02274 3.77011 5.59483C3.53261 6.16691 3.47047 6.79642 3.59154 7.40374C3.71262 8.01107 4.01148 8.56893 4.45032 9.00678C4.88916 9.44464 5.44828 9.74282 6.05697 9.86363C6.66566 9.98443 7.29658 9.92243 7.86996 9.68546C8.44333 9.4485 8.9334 9.04721 9.2782 8.53235C9.62299 8.01748 9.80703 7.41217 9.80703 6.79295C9.80703 5.9626 9.47643 5.16626 8.88796 4.57911C8.29949 3.99196 7.50136 3.66211 6.66914 3.66211ZM6.66914 8.82521C6.26629 8.82521 5.87249 8.70602 5.53753 8.48271C5.20258 8.2594 4.94151 7.94201 4.78735 7.57066C4.63319 7.19931 4.59285 6.79069 4.67144 6.39647C4.75003 6.00225 4.94402 5.64014 5.22888 5.35592C5.51374 5.07171 5.87667 4.87815 6.27177 4.79974C6.66688 4.72132 7.07642 4.76157 7.4486 4.91539C7.82078 5.0692 8.13889 5.32968 8.3627 5.66389C8.58651 5.99809 8.70597 6.39101 8.70597 6.79295C8.70597 7.33194 8.49138 7.84885 8.1094 8.22997C7.72742 8.61109 7.20934 8.82521 6.66914 8.82521V8.82521Z" fill="white"/>
<path d="M9.93004 4.26889C10.335 4.26889 10.6633 3.94134 10.6633 3.53728C10.6633 3.13322 10.335 2.80566 9.93004 2.80566C9.52507 2.80566 9.19678 3.13322 9.19678 3.53728C9.19678 3.94134 9.52507 4.26889 9.93004 4.26889Z" fill="white"/>
</svg>
