<svg width="11" height="9" viewBox="0 0 11 9" fill="none" xmlns="http://www.w3.org/2000/svg">
<path d="M10.1016 1.07561C9.72367 1.24322 9.3247 1.34798 8.90474 1.41083C9.3247 1.15942 9.66067 0.761346 9.80766 0.27947C9.40869 0.509933 8.96773 0.677541 8.48477 0.782297C8.1068 0.384226 7.56085 0.132812 6.97289 0.132812C5.83899 0.132812 4.91506 1.05466 4.91506 2.18602C4.91506 2.35363 4.93606 2.50029 4.97806 2.64695C3.2772 2.56314 1.74432 1.74605 0.715404 0.488982C0.547418 0.803248 0.442427 1.13847 0.442427 1.51559C0.442427 2.22792 0.799398 2.85646 1.36635 3.23358C1.03038 3.21263 0.715404 3.12882 0.421428 2.98216V3.00311C0.421428 4.00877 1.13537 4.84681 2.08029 5.03537C1.91231 5.07728 1.72332 5.09823 1.53434 5.09823C1.40835 5.09823 1.26136 5.07728 1.13537 5.05632C1.40835 5.87342 2.16429 6.481 3.06721 6.481C2.35327 7.02573 1.47134 7.36095 0.505421 7.36095C0.337435 7.36095 0.169449 7.36095 0.0224609 7.34C0.946386 7.92663 2.0173 8.26185 3.1932 8.26185C6.99389 8.26185 9.07272 5.11918 9.07272 2.39553C9.07272 2.31173 9.07272 2.20697 9.07272 2.12317C9.47169 1.8508 9.82866 1.49464 10.1016 1.07561Z" fill="white"/>
</svg>
